<svg width="143" height="132" viewBox="0 0 143 132" fill="none" xmlns="http://www.w3.org/2000/svg">
<path d="M142.38 52.29H96.83C89.57 52.29 82.73 50.83 76.48 48.19C67.11 44.23 59.1 37.58 53.46 29.23C47.82 20.87 44.54 10.87 44.54 0H18.16C18.16 10.83 20.36 21.21 24.35 30.63C27.73 38.62 32.39 45.93 38.06 52.3H0V78.68H83.68C81.29 81.35 79.08 84.17 77.07 87.15C68.59 99.69 63.62 114.9 63.63 131.15H90.01C90.01 123.89 91.47 117.05 94.11 110.8C98.07 101.43 104.72 93.42 113.07 87.78C121.43 82.14 131.43 78.86 142.3 78.86V78.69H142.38V52.31V52.29Z" fill="#a855f7"/>
</svg>
